<svg width="111" height="64" viewBox="0 0 111 64" fill="#FFFFFF" xmlns="http://www.w3.org/2000/svg">
<path d="M0 59.1034C0 57.7517 0.464856 56.6041 1.39457 55.6605C2.32428 54.6914 3.45501 54.2068 4.78676 54.2068H12.7772V9.1046C12.7772 6.14624 13.5813 3.88922 15.1895 2.33353C16.7976 0.777844 19.0088 0 21.8231 0H89.1769C92.1168 0 94.3531 0.777844 95.8859 2.33353C97.4438 3.88922 98.2227 6.14624 98.2227 9.1046V54.2068H106.213C107.545 54.2068 108.676 54.6914 109.605 55.6605C110.535 56.6041 111 57.7517 111 59.1034C111 60.4296 110.535 61.5772 109.605 62.5463C108.676 63.5154 107.545 64 106.213 64H4.78676C3.45501 64 2.32428 63.5154 1.39457 62.5463C0.464856 61.5772 0 60.4296 0 59.1034ZM20.1647 54.2068H90.8353V11.0938C90.8353 9.8697 90.5338 8.96434 89.9307 8.37776C89.3528 7.79119 88.4859 7.49791 87.33 7.49791H23.6699C22.5141 7.49791 21.6346 7.79119 21.0316 8.37776C20.4536 8.96434 20.1647 9.8697 20.1647 11.0938V54.2068Z" fill="#FFFFFF"/>
</svg>
