<svg width="63" height="65" viewBox="0 0 63 65" fill="#FFFFFF" xmlns="http://www.w3.org/2000/svg">
<path d="M0.15625 34.2249C0.15625 29.2176 0.885074 24.671 2.34272 20.585C3.82034 16.499 5.91696 12.9939 8.63258 10.0696C11.3682 7.12534 14.6329 4.86203 18.4268 3.27972C22.2406 1.69741 26.4838 0.90625 31.1563 0.90625C35.8087 0.90625 40.0319 1.69741 43.8258 3.27972C47.6397 4.86203 50.9144 7.12534 53.65 10.0696C56.3856 12.9939 58.4822 16.499 59.9398 20.585C61.4174 24.671 62.1563 29.2176 62.1563 34.2249C62.1563 37.2894 61.8767 40.404 61.3176 43.5686C60.7585 46.7132 59.9398 49.7977 58.8616 52.8221C57.8033 55.8265 56.5353 58.6306 55.0577 61.2344C54.6384 61.9755 54.0393 62.4462 53.2606 62.6465C52.5018 62.8668 51.7331 62.7566 50.9543 62.316C50.2155 61.9154 49.7463 61.3246 49.5466 60.5434C49.3669 59.7823 49.4967 58.9911 49.936 58.1699C51.9327 54.5446 53.4703 50.659 54.5485 46.5129C55.6268 42.3468 56.1659 38.2508 56.1659 34.2249C56.1659 30.139 55.5669 26.4235 54.3688 23.0787C53.1907 19.7137 51.4934 16.8295 49.277 14.426C47.0806 12.0025 44.4448 10.1498 41.3698 8.86789C38.2947 7.56598 34.8902 6.91503 31.1563 6.91503C27.4023 6.91503 23.9878 7.56598 20.9128 8.86789C17.8577 10.1498 15.222 12.0025 13.0055 14.426C10.8091 16.8295 9.11181 19.7137 7.91374 23.0787C6.73564 26.4235 6.14659 30.139 6.14659 34.2249C6.14659 38.2508 6.68572 42.3468 7.76398 46.5129C8.84224 50.659 10.3698 54.5446 12.3466 58.1699C12.7859 58.9911 12.9157 59.7823 12.736 60.5434C12.5563 61.3246 12.087 61.9154 11.3282 62.316C10.5495 62.7566 9.77074 62.8668 8.992 62.6465C8.23322 62.4462 7.64417 61.9755 7.22485 61.2344C5.74723 58.6306 4.47928 55.8265 3.42098 52.8221C2.38266 49.7977 1.57396 46.7132 0.994897 43.5686C0.435799 40.404 0.15625 37.2894 0.15625 34.2249ZM10.25 60.4232L5.96688 46.2125C5.40778 44.4098 5.49764 42.7875 6.23644 41.3454C6.99522 39.9032 8.27316 38.9118 10.0703 38.371C11.8674 37.8502 13.4748 37.9604 14.8925 38.7015C16.3102 39.4426 17.2886 40.7044 17.8277 42.487L22.1108 56.7579C22.6699 58.5405 22.5701 60.1428 21.8113 61.5649C21.0725 63.007 19.8046 64.0085 18.0075 64.5693C16.2104 65.1101 14.6029 64.9999 13.1852 64.2388C11.7675 63.4777 10.7891 62.2058 10.25 60.4232ZM52.0326 60.4232C51.4934 62.2058 50.515 63.4777 49.0973 64.2388C47.6796 64.9999 46.0722 65.1101 44.2751 64.5693C42.498 64.0085 41.23 63.017 40.4712 61.595C39.7125 60.1729 39.6126 58.5605 40.1717 56.7579L44.4848 42.487C45.0239 40.7044 45.9923 39.4426 47.3901 38.7015C48.8078 37.9604 50.4152 37.8502 52.2123 38.371C54.0094 38.9118 55.2773 39.9032 56.0162 41.3454C56.7749 42.7674 56.8748 44.3898 56.3157 46.2125L52.0326 60.4232Z" fill="#FFFFFF"/>
</svg>
